<mxfile host="app.diagrams.net" modified="2024-03-26T10:33:32.856Z" agent="Mozilla/5.0 (Windows NT 10.0; Win64; x64; rv:124.0) Gecko/20100101 Firefox/124.0" etag="h3sWRmwx7vhdWTP3A3MJ" version="24.1.0" type="device">
  <diagram id="C5RBs43oDa-KdzZeNtuy" name="Page-1">
    <mxGraphModel dx="2868" dy="2733" grid="1" gridSize="10" guides="1" tooltips="1" connect="1" arrows="1" fold="1" page="1" pageScale="1" pageWidth="827" pageHeight="1169" math="0" shadow="0">
      <root>
        <mxCell id="WIyWlLk6GJQsqaUBKTNV-0" />
        <mxCell id="WIyWlLk6GJQsqaUBKTNV-1" parent="WIyWlLk6GJQsqaUBKTNV-0" />
        <mxCell id="-gnc18n2pd0LGO67LdCI-12" value="" style="group;fontFamily=Verdana;" parent="WIyWlLk6GJQsqaUBKTNV-1" vertex="1" connectable="0">
          <mxGeometry x="428" y="-560" width="240" height="280" as="geometry" />
        </mxCell>
        <mxCell id="-gnc18n2pd0LGO67LdCI-6" value="" style="rounded=0;whiteSpace=wrap;html=1;fillColor=#f5f5f5;fontColor=#333333;strokeColor=#666666;" parent="-gnc18n2pd0LGO67LdCI-12" vertex="1">
          <mxGeometry width="240" height="40" as="geometry" />
        </mxCell>
        <mxCell id="-gnc18n2pd0LGO67LdCI-7" value="" style="rounded=0;whiteSpace=wrap;html=1;" parent="-gnc18n2pd0LGO67LdCI-12" vertex="1">
          <mxGeometry x="40" y="40" width="200" height="40" as="geometry" />
        </mxCell>
        <mxCell id="-gnc18n2pd0LGO67LdCI-8" value="" style="rounded=0;whiteSpace=wrap;html=1;" parent="-gnc18n2pd0LGO67LdCI-12" vertex="1">
          <mxGeometry y="40" width="40" height="40" as="geometry" />
        </mxCell>
        <mxCell id="-gnc18n2pd0LGO67LdCI-9" value="" style="rounded=0;whiteSpace=wrap;html=1;" parent="-gnc18n2pd0LGO67LdCI-12" vertex="1">
          <mxGeometry y="80" width="40" height="200" as="geometry" />
        </mxCell>
        <mxCell id="-gnc18n2pd0LGO67LdCI-10" value="" style="rounded=0;whiteSpace=wrap;html=1;" parent="-gnc18n2pd0LGO67LdCI-12" vertex="1">
          <mxGeometry x="40" y="80" width="200" height="200" as="geometry" />
        </mxCell>
        <mxCell id="-gnc18n2pd0LGO67LdCI-11" value="&lt;b&gt;PK&lt;/b&gt;" style="text;strokeColor=none;align=center;fillColor=none;html=1;verticalAlign=middle;whiteSpace=wrap;rounded=0;" parent="-gnc18n2pd0LGO67LdCI-12" vertex="1">
          <mxGeometry y="40" width="40" height="40" as="geometry" />
        </mxCell>
        <mxCell id="-gnc18n2pd0LGO67LdCI-15" value="&lt;b&gt;id_tournament&lt;/b&gt;" style="text;strokeColor=none;align=left;fillColor=none;html=1;verticalAlign=middle;whiteSpace=wrap;rounded=0;fontStyle=4" parent="-gnc18n2pd0LGO67LdCI-12" vertex="1">
          <mxGeometry x="55.00000000000001" y="45" width="110.00000000000001" height="30" as="geometry" />
        </mxCell>
        <mxCell id="-gnc18n2pd0LGO67LdCI-16" value="unique_name NN UNIQUE" style="text;strokeColor=none;align=left;fillColor=none;html=1;verticalAlign=middle;whiteSpace=wrap;rounded=0;fontFamily=Verdana;" parent="-gnc18n2pd0LGO67LdCI-12" vertex="1">
          <mxGeometry x="55" y="90" width="175" height="30" as="geometry" />
        </mxCell>
        <mxCell id="-gnc18n2pd0LGO67LdCI-17" value="&lt;div align=&quot;left&quot;&gt;date NN&lt;/div&gt;" style="text;strokeColor=none;align=left;fillColor=none;html=1;verticalAlign=middle;whiteSpace=wrap;rounded=0;fontFamily=Verdana;" parent="-gnc18n2pd0LGO67LdCI-12" vertex="1">
          <mxGeometry x="55.00000000000001" y="120" width="110.00000000000001" height="30" as="geometry" />
        </mxCell>
        <mxCell id="-gnc18n2pd0LGO67LdCI-18" value="coach (FK) NN" style="text;strokeColor=none;align=left;fillColor=none;html=1;verticalAlign=middle;whiteSpace=wrap;rounded=0;fontFamily=Verdana;" parent="-gnc18n2pd0LGO67LdCI-12" vertex="1">
          <mxGeometry x="55.00000000000001" y="150" width="110.00000000000001" height="30" as="geometry" />
        </mxCell>
        <mxCell id="-gnc18n2pd0LGO67LdCI-14" value="&lt;b&gt;proj.tournaments&lt;/b&gt;" style="text;strokeColor=none;align=center;fillColor=none;html=1;verticalAlign=middle;whiteSpace=wrap;rounded=0;" parent="-gnc18n2pd0LGO67LdCI-12" vertex="1">
          <mxGeometry width="240" height="40" as="geometry" />
        </mxCell>
        <mxCell id="-gnc18n2pd0LGO67LdCI-22" value="banner NN" style="text;strokeColor=none;align=left;fillColor=none;html=1;verticalAlign=middle;whiteSpace=wrap;rounded=0;fontFamily=Verdana;" parent="-gnc18n2pd0LGO67LdCI-12" vertex="1">
          <mxGeometry x="55.00000000000001" y="180" width="110.00000000000001" height="30" as="geometry" />
        </mxCell>
        <mxCell id="-gnc18n2pd0LGO67LdCI-23" value="current_nb_participant NN" style="text;strokeColor=none;align=left;fillColor=none;html=1;verticalAlign=middle;whiteSpace=wrap;rounded=0;fontFamily=Verdana;" parent="-gnc18n2pd0LGO67LdCI-12" vertex="1">
          <mxGeometry x="55" y="210" width="175" height="30" as="geometry" />
        </mxCell>
        <mxCell id="-gnc18n2pd0LGO67LdCI-24" value="max_nb_participant NN" style="text;strokeColor=none;align=left;fillColor=none;html=1;verticalAlign=middle;whiteSpace=wrap;rounded=0;fontFamily=Verdana;" parent="-gnc18n2pd0LGO67LdCI-12" vertex="1">
          <mxGeometry x="55" y="240" width="175" height="30" as="geometry" />
        </mxCell>
        <mxCell id="-gnc18n2pd0LGO67LdCI-42" value="" style="triangle;whiteSpace=wrap;html=1;rotation=-180;" parent="-gnc18n2pd0LGO67LdCI-12" vertex="1">
          <mxGeometry x="-16.5" y="157" width="16.5" height="20" as="geometry" />
        </mxCell>
        <mxCell id="-gnc18n2pd0LGO67LdCI-41" value="" style="endArrow=none;html=1;rounded=0;exitX=-0.003;exitY=0.435;exitDx=0;exitDy=0;exitPerimeter=0;" parent="WIyWlLk6GJQsqaUBKTNV-1" source="-gnc18n2pd0LGO67LdCI-9" edge="1">
          <mxGeometry width="50" height="50" relative="1" as="geometry">
            <mxPoint x="250" y="-679" as="sourcePoint" />
            <mxPoint x="320" y="-919" as="targetPoint" />
            <Array as="points">
              <mxPoint x="400" y="-393" />
              <mxPoint x="400" y="-640" />
              <mxPoint x="360" y="-640" />
              <mxPoint x="360" y="-919" />
            </Array>
          </mxGeometry>
        </mxCell>
        <mxCell id="-gnc18n2pd0LGO67LdCI-46" value="" style="ellipse;whiteSpace=wrap;html=1;" parent="WIyWlLk6GJQsqaUBKTNV-1" vertex="1">
          <mxGeometry x="400" y="-398" width="11.11" height="10" as="geometry" />
        </mxCell>
        <mxCell id="-gnc18n2pd0LGO67LdCI-51" value="" style="group" parent="WIyWlLk6GJQsqaUBKTNV-1" vertex="1" connectable="0">
          <mxGeometry x="120" y="-1039" width="200" height="280" as="geometry" />
        </mxCell>
        <mxCell id="-gnc18n2pd0LGO67LdCI-59" value="" style="group" parent="-gnc18n2pd0LGO67LdCI-51" vertex="1" connectable="0">
          <mxGeometry width="200" height="280" as="geometry" />
        </mxCell>
        <mxCell id="-gnc18n2pd0LGO67LdCI-60" value="" style="group" parent="-gnc18n2pd0LGO67LdCI-59" vertex="1" connectable="0">
          <mxGeometry width="200" height="280" as="geometry" />
        </mxCell>
        <mxCell id="-gnc18n2pd0LGO67LdCI-29" value="" style="rounded=0;whiteSpace=wrap;html=1;" parent="-gnc18n2pd0LGO67LdCI-60" vertex="1">
          <mxGeometry x="-40" y="-1" width="40" height="280" as="geometry" />
        </mxCell>
        <mxCell id="-gnc18n2pd0LGO67LdCI-30" value="" style="rounded=0;whiteSpace=wrap;html=1;" parent="-gnc18n2pd0LGO67LdCI-60" vertex="1">
          <mxGeometry y="-1" width="200" height="280" as="geometry" />
        </mxCell>
        <mxCell id="-gnc18n2pd0LGO67LdCI-33" value="&lt;font face=&quot;Verdana&quot;&gt;name &lt;/font&gt;NN" style="text;strokeColor=none;align=left;fillColor=none;html=1;verticalAlign=middle;whiteSpace=wrap;rounded=0;" parent="-gnc18n2pd0LGO67LdCI-60" vertex="1">
          <mxGeometry x="10" y="9" width="130" height="30" as="geometry" />
        </mxCell>
        <mxCell id="-gnc18n2pd0LGO67LdCI-34" value="&lt;div align=&quot;left&quot;&gt;&lt;font face=&quot;Verdana&quot;&gt;surname NN&lt;/font&gt;&lt;/div&gt;" style="text;strokeColor=none;align=left;fillColor=none;html=1;verticalAlign=middle;whiteSpace=wrap;rounded=0;" parent="-gnc18n2pd0LGO67LdCI-60" vertex="1">
          <mxGeometry x="10" y="39" width="100" height="30" as="geometry" />
        </mxCell>
        <mxCell id="-gnc18n2pd0LGO67LdCI-35" value="is_coach NN" style="text;strokeColor=none;align=left;fillColor=none;html=1;verticalAlign=middle;whiteSpace=wrap;rounded=0;fontFamily=Verdana;" parent="-gnc18n2pd0LGO67LdCI-60" vertex="1">
          <mxGeometry x="10" y="129" width="100" height="30" as="geometry" />
        </mxCell>
        <mxCell id="-gnc18n2pd0LGO67LdCI-37" value="picture_name " style="text;strokeColor=none;align=left;fillColor=none;html=1;verticalAlign=middle;whiteSpace=wrap;rounded=0;fontFamily=Verdana;" parent="-gnc18n2pd0LGO67LdCI-60" vertex="1">
          <mxGeometry x="10" y="159" width="110" height="30" as="geometry" />
        </mxCell>
        <mxCell id="-gnc18n2pd0LGO67LdCI-38" value="bio " style="text;strokeColor=none;align=left;fillColor=none;html=1;verticalAlign=middle;whiteSpace=wrap;rounded=0;fontFamily=Verdana;" parent="-gnc18n2pd0LGO67LdCI-60" vertex="1">
          <mxGeometry x="10" y="189" width="140" height="30" as="geometry" />
        </mxCell>
        <mxCell id="-gnc18n2pd0LGO67LdCI-39" value="max_nb_participant NN" style="text;strokeColor=none;align=left;fillColor=none;html=1;verticalAlign=middle;whiteSpace=wrap;rounded=0;fontFamily=Verdana;" parent="-gnc18n2pd0LGO67LdCI-60" vertex="1">
          <mxGeometry x="10" y="219" width="170" height="30" as="geometry" />
        </mxCell>
        <mxCell id="-gnc18n2pd0LGO67LdCI-48" value="&lt;font face=&quot;Verdana&quot;&gt;email &lt;/font&gt;NN UNIQUE" style="text;strokeColor=none;align=left;fillColor=none;html=1;verticalAlign=middle;whiteSpace=wrap;rounded=0;" parent="-gnc18n2pd0LGO67LdCI-60" vertex="1">
          <mxGeometry x="10" y="69" width="130" height="30" as="geometry" />
        </mxCell>
        <mxCell id="-gnc18n2pd0LGO67LdCI-49" value="&lt;div align=&quot;left&quot;&gt;&lt;font face=&quot;Verdana&quot;&gt;password NN&lt;/font&gt;&lt;/div&gt;" style="text;strokeColor=none;align=left;fillColor=none;html=1;verticalAlign=middle;whiteSpace=wrap;rounded=0;" parent="-gnc18n2pd0LGO67LdCI-60" vertex="1">
          <mxGeometry x="10" y="99" width="100" height="30" as="geometry" />
        </mxCell>
        <mxCell id="-gnc18n2pd0LGO67LdCI-61" value="" style="group" parent="WIyWlLk6GJQsqaUBKTNV-1" vertex="1" connectable="0">
          <mxGeometry x="80" y="-1120" width="240" height="80" as="geometry" />
        </mxCell>
        <mxCell id="-gnc18n2pd0LGO67LdCI-26" value="" style="rounded=0;whiteSpace=wrap;html=1;fillColor=#f5f5f5;fontColor=#333333;strokeColor=#666666;" parent="-gnc18n2pd0LGO67LdCI-61" vertex="1">
          <mxGeometry width="240" height="40" as="geometry" />
        </mxCell>
        <mxCell id="-gnc18n2pd0LGO67LdCI-36" value="&lt;b&gt;proj.users&lt;/b&gt;" style="text;strokeColor=none;align=center;fillColor=none;html=1;verticalAlign=middle;whiteSpace=wrap;rounded=0;" parent="-gnc18n2pd0LGO67LdCI-61" vertex="1">
          <mxGeometry width="240" height="40" as="geometry" />
        </mxCell>
        <mxCell id="-gnc18n2pd0LGO67LdCI-27" value="" style="rounded=0;whiteSpace=wrap;html=1;" parent="-gnc18n2pd0LGO67LdCI-61" vertex="1">
          <mxGeometry x="40" y="40" width="200" height="40" as="geometry" />
        </mxCell>
        <mxCell id="-gnc18n2pd0LGO67LdCI-32" value="&lt;b&gt;id_user&lt;/b&gt;" style="text;strokeColor=none;align=left;fillColor=none;html=1;verticalAlign=middle;whiteSpace=wrap;rounded=0;fontStyle=4" parent="-gnc18n2pd0LGO67LdCI-61" vertex="1">
          <mxGeometry x="50" y="45" width="100" height="30" as="geometry" />
        </mxCell>
        <mxCell id="-gnc18n2pd0LGO67LdCI-28" value="" style="rounded=0;whiteSpace=wrap;html=1;" parent="-gnc18n2pd0LGO67LdCI-61" vertex="1">
          <mxGeometry y="40" width="40" height="40" as="geometry" />
        </mxCell>
        <mxCell id="-gnc18n2pd0LGO67LdCI-31" value="&lt;b&gt;PK&lt;/b&gt;" style="text;strokeColor=none;align=center;fillColor=none;html=1;verticalAlign=middle;whiteSpace=wrap;rounded=0;" parent="-gnc18n2pd0LGO67LdCI-61" vertex="1">
          <mxGeometry y="40" width="40" height="40" as="geometry" />
        </mxCell>
        <mxCell id="3PNE6WmQYY1Y-yN5yuSF-0" value="" style="group;fontFamily=Verdana;" vertex="1" connectable="0" parent="WIyWlLk6GJQsqaUBKTNV-1">
          <mxGeometry x="760" y="-560" width="240" height="280" as="geometry" />
        </mxCell>
        <mxCell id="3PNE6WmQYY1Y-yN5yuSF-1" value="" style="rounded=0;whiteSpace=wrap;html=1;fillColor=#f5f5f5;fontColor=#333333;strokeColor=#666666;" vertex="1" parent="3PNE6WmQYY1Y-yN5yuSF-0">
          <mxGeometry width="240" height="40" as="geometry" />
        </mxCell>
        <mxCell id="3PNE6WmQYY1Y-yN5yuSF-2" value="" style="rounded=0;whiteSpace=wrap;html=1;" vertex="1" parent="3PNE6WmQYY1Y-yN5yuSF-0">
          <mxGeometry x="40" y="40" width="200" height="40" as="geometry" />
        </mxCell>
        <mxCell id="3PNE6WmQYY1Y-yN5yuSF-3" value="" style="rounded=0;whiteSpace=wrap;html=1;" vertex="1" parent="3PNE6WmQYY1Y-yN5yuSF-0">
          <mxGeometry y="40" width="40" height="40" as="geometry" />
        </mxCell>
        <mxCell id="3PNE6WmQYY1Y-yN5yuSF-4" value="" style="rounded=0;whiteSpace=wrap;html=1;" vertex="1" parent="3PNE6WmQYY1Y-yN5yuSF-0">
          <mxGeometry y="80" width="40" height="200" as="geometry" />
        </mxCell>
        <mxCell id="3PNE6WmQYY1Y-yN5yuSF-5" value="" style="rounded=0;whiteSpace=wrap;html=1;" vertex="1" parent="3PNE6WmQYY1Y-yN5yuSF-0">
          <mxGeometry x="40" y="80" width="200" height="200" as="geometry" />
        </mxCell>
        <mxCell id="3PNE6WmQYY1Y-yN5yuSF-6" value="&lt;b&gt;PK&lt;/b&gt;" style="text;strokeColor=none;align=center;fillColor=none;html=1;verticalAlign=middle;whiteSpace=wrap;rounded=0;" vertex="1" parent="3PNE6WmQYY1Y-yN5yuSF-0">
          <mxGeometry y="40" width="40" height="40" as="geometry" />
        </mxCell>
        <mxCell id="3PNE6WmQYY1Y-yN5yuSF-7" value="&lt;b&gt;id_message&lt;/b&gt;" style="text;strokeColor=none;align=left;fillColor=none;html=1;verticalAlign=middle;whiteSpace=wrap;rounded=0;fontStyle=4" vertex="1" parent="3PNE6WmQYY1Y-yN5yuSF-0">
          <mxGeometry x="55.00000000000001" y="45" width="110.00000000000001" height="30" as="geometry" />
        </mxCell>
        <mxCell id="3PNE6WmQYY1Y-yN5yuSF-8" value="text NN" style="text;strokeColor=none;align=left;fillColor=none;html=1;verticalAlign=middle;whiteSpace=wrap;rounded=0;fontFamily=Verdana;" vertex="1" parent="3PNE6WmQYY1Y-yN5yuSF-0">
          <mxGeometry x="55" y="90" width="175" height="30" as="geometry" />
        </mxCell>
        <mxCell id="3PNE6WmQYY1Y-yN5yuSF-9" value="id_user (FK) NN" style="text;strokeColor=none;align=left;fillColor=none;html=1;verticalAlign=middle;whiteSpace=wrap;rounded=0;fontFamily=Verdana;" vertex="1" parent="3PNE6WmQYY1Y-yN5yuSF-0">
          <mxGeometry x="55.00000000000001" y="120" width="110.00000000000001" height="30" as="geometry" />
        </mxCell>
        <mxCell id="3PNE6WmQYY1Y-yN5yuSF-10" value="id_coach (FK) NN" style="text;strokeColor=none;align=left;fillColor=none;html=1;verticalAlign=middle;whiteSpace=wrap;rounded=0;fontFamily=Verdana;" vertex="1" parent="3PNE6WmQYY1Y-yN5yuSF-0">
          <mxGeometry x="55.00000000000001" y="150" width="110.00000000000001" height="30" as="geometry" />
        </mxCell>
        <mxCell id="3PNE6WmQYY1Y-yN5yuSF-11" value="&lt;b&gt;proj.messages&lt;/b&gt;" style="text;strokeColor=none;align=center;fillColor=none;html=1;verticalAlign=middle;whiteSpace=wrap;rounded=0;" vertex="1" parent="3PNE6WmQYY1Y-yN5yuSF-0">
          <mxGeometry width="240" height="40" as="geometry" />
        </mxCell>
        <mxCell id="3PNE6WmQYY1Y-yN5yuSF-12" value="date NN" style="text;strokeColor=none;align=left;fillColor=none;html=1;verticalAlign=middle;whiteSpace=wrap;rounded=0;fontFamily=Verdana;" vertex="1" parent="3PNE6WmQYY1Y-yN5yuSF-0">
          <mxGeometry x="55.00000000000001" y="180" width="110.00000000000001" height="30" as="geometry" />
        </mxCell>
        <mxCell id="3PNE6WmQYY1Y-yN5yuSF-13" value="response NN" style="text;strokeColor=none;align=left;fillColor=none;html=1;verticalAlign=middle;whiteSpace=wrap;rounded=0;fontFamily=Verdana;" vertex="1" parent="3PNE6WmQYY1Y-yN5yuSF-0">
          <mxGeometry x="55" y="210" width="175" height="30" as="geometry" />
        </mxCell>
        <mxCell id="3PNE6WmQYY1Y-yN5yuSF-15" value="" style="triangle;whiteSpace=wrap;html=1;rotation=-180;" vertex="1" parent="3PNE6WmQYY1Y-yN5yuSF-0">
          <mxGeometry x="-16.5" y="157" width="16.5" height="20" as="geometry" />
        </mxCell>
        <mxCell id="-gnc18n2pd0LGO67LdCI-83" value="" style="triangle;whiteSpace=wrap;html=1;rotation=0;" parent="WIyWlLk6GJQsqaUBKTNV-1" vertex="1">
          <mxGeometry x="575.66" y="89.5" width="14.25" height="19" as="geometry" />
        </mxCell>
        <mxCell id="-gnc18n2pd0LGO67LdCI-53" value="" style="rounded=0;whiteSpace=wrap;html=1;fillColor=#f5f5f5;fontColor=#333333;strokeColor=#666666;" parent="WIyWlLk6GJQsqaUBKTNV-1" vertex="1">
          <mxGeometry x="335.65999999999997" y="-40" width="240" height="40" as="geometry" />
        </mxCell>
        <mxCell id="-gnc18n2pd0LGO67LdCI-54" value="" style="rounded=0;whiteSpace=wrap;html=1;" parent="WIyWlLk6GJQsqaUBKTNV-1" vertex="1">
          <mxGeometry x="375.65999999999997" width="200" height="40" as="geometry" />
        </mxCell>
        <mxCell id="-gnc18n2pd0LGO67LdCI-55" value="" style="rounded=0;whiteSpace=wrap;html=1;" parent="WIyWlLk6GJQsqaUBKTNV-1" vertex="1">
          <mxGeometry x="335.65999999999997" width="40" height="40" as="geometry" />
        </mxCell>
        <mxCell id="-gnc18n2pd0LGO67LdCI-56" value="" style="rounded=0;whiteSpace=wrap;html=1;" parent="WIyWlLk6GJQsqaUBKTNV-1" vertex="1">
          <mxGeometry x="335.65999999999997" y="40" width="40" height="110" as="geometry" />
        </mxCell>
        <mxCell id="-gnc18n2pd0LGO67LdCI-57" value="" style="rounded=0;whiteSpace=wrap;html=1;" parent="WIyWlLk6GJQsqaUBKTNV-1" vertex="1">
          <mxGeometry x="375.65999999999997" y="40" width="200" height="110" as="geometry" />
        </mxCell>
        <mxCell id="-gnc18n2pd0LGO67LdCI-58" value="PK" style="text;strokeColor=none;align=center;fillColor=none;html=1;verticalAlign=middle;whiteSpace=wrap;rounded=0;fontFamily=Verdana;fontStyle=1" parent="WIyWlLk6GJQsqaUBKTNV-1" vertex="1">
          <mxGeometry x="335.65999999999997" width="40" height="40" as="geometry" />
        </mxCell>
        <mxCell id="-gnc18n2pd0LGO67LdCI-71" value="proj.registration_tournament" style="text;strokeColor=none;align=center;fillColor=none;html=1;verticalAlign=middle;whiteSpace=wrap;rounded=0;fontStyle=1;fontFamily=Verdana;" parent="WIyWlLk6GJQsqaUBKTNV-1" vertex="1">
          <mxGeometry x="335.65999999999997" y="-40" width="240" height="40" as="geometry" />
        </mxCell>
        <mxCell id="-gnc18n2pd0LGO67LdCI-72" value="&lt;b&gt;user, tournament&lt;br&gt;&lt;/b&gt;" style="text;strokeColor=none;align=left;fillColor=none;html=1;verticalAlign=middle;whiteSpace=wrap;rounded=0;fontStyle=4" parent="WIyWlLk6GJQsqaUBKTNV-1" vertex="1">
          <mxGeometry x="385.65999999999997" y="5" width="190" height="30" as="geometry" />
        </mxCell>
        <mxCell id="-gnc18n2pd0LGO67LdCI-76" value="user (FK) NN" style="text;strokeColor=none;align=left;fillColor=none;html=1;verticalAlign=middle;whiteSpace=wrap;rounded=0;fontFamily=Verdana;" parent="WIyWlLk6GJQsqaUBKTNV-1" vertex="1">
          <mxGeometry x="385.65999999999997" y="50" width="170" height="30" as="geometry" />
        </mxCell>
        <mxCell id="-gnc18n2pd0LGO67LdCI-77" value="tournament (FK) NN" style="text;strokeColor=none;align=left;fillColor=none;html=1;verticalAlign=middle;whiteSpace=wrap;rounded=0;fontFamily=Verdana;" parent="WIyWlLk6GJQsqaUBKTNV-1" vertex="1">
          <mxGeometry x="385.65999999999997" y="80" width="170" height="30" as="geometry" />
        </mxCell>
        <mxCell id="-gnc18n2pd0LGO67LdCI-80" value="" style="triangle;whiteSpace=wrap;html=1;rotation=-180;" parent="WIyWlLk6GJQsqaUBKTNV-1" vertex="1">
          <mxGeometry x="321.40999999999997" y="56" width="14.25" height="19" as="geometry" />
        </mxCell>
        <mxCell id="-gnc18n2pd0LGO67LdCI-87" value="" style="ellipse;whiteSpace=wrap;html=1;" parent="WIyWlLk6GJQsqaUBKTNV-1" vertex="1">
          <mxGeometry x="589.91" y="94.5" width="11.11" height="10" as="geometry" />
        </mxCell>
        <mxCell id="-gnc18n2pd0LGO67LdCI-88" value="" style="ellipse;whiteSpace=wrap;html=1;" parent="WIyWlLk6GJQsqaUBKTNV-1" vertex="1">
          <mxGeometry x="310" y="60.5" width="11.11" height="10" as="geometry" />
        </mxCell>
        <mxCell id="3PNE6WmQYY1Y-yN5yuSF-21" value="" style="rounded=0;whiteSpace=wrap;html=1;fillColor=#f5f5f5;fontColor=#333333;strokeColor=#666666;" vertex="1" parent="WIyWlLk6GJQsqaUBKTNV-1">
          <mxGeometry x="80" y="-560" width="240" height="40" as="geometry" />
        </mxCell>
        <mxCell id="3PNE6WmQYY1Y-yN5yuSF-22" value="" style="rounded=0;whiteSpace=wrap;html=1;" vertex="1" parent="WIyWlLk6GJQsqaUBKTNV-1">
          <mxGeometry x="120" y="-520" width="200" height="40" as="geometry" />
        </mxCell>
        <mxCell id="3PNE6WmQYY1Y-yN5yuSF-23" value="" style="rounded=0;whiteSpace=wrap;html=1;" vertex="1" parent="WIyWlLk6GJQsqaUBKTNV-1">
          <mxGeometry x="80" y="-520" width="40" height="40" as="geometry" />
        </mxCell>
        <mxCell id="3PNE6WmQYY1Y-yN5yuSF-24" value="" style="rounded=0;whiteSpace=wrap;html=1;" vertex="1" parent="WIyWlLk6GJQsqaUBKTNV-1">
          <mxGeometry x="80" y="-480" width="40" height="120" as="geometry" />
        </mxCell>
        <mxCell id="3PNE6WmQYY1Y-yN5yuSF-25" value="" style="rounded=0;whiteSpace=wrap;html=1;" vertex="1" parent="WIyWlLk6GJQsqaUBKTNV-1">
          <mxGeometry x="120" y="-480" width="200" height="120" as="geometry" />
        </mxCell>
        <mxCell id="3PNE6WmQYY1Y-yN5yuSF-26" value="&lt;b&gt;PK&lt;/b&gt;" style="text;strokeColor=none;align=center;fillColor=none;html=1;verticalAlign=middle;whiteSpace=wrap;rounded=0;" vertex="1" parent="WIyWlLk6GJQsqaUBKTNV-1">
          <mxGeometry x="80" y="-520" width="40" height="40" as="geometry" />
        </mxCell>
        <mxCell id="3PNE6WmQYY1Y-yN5yuSF-27" value="&lt;b&gt;id_booking&lt;/b&gt;" style="text;strokeColor=none;align=left;fillColor=none;html=1;verticalAlign=middle;whiteSpace=wrap;rounded=0;fontStyle=4" vertex="1" parent="WIyWlLk6GJQsqaUBKTNV-1">
          <mxGeometry x="135" y="-515" width="110.00000000000001" height="30" as="geometry" />
        </mxCell>
        <mxCell id="3PNE6WmQYY1Y-yN5yuSF-28" value="id_court (FK) NN" style="text;strokeColor=none;align=left;fillColor=none;html=1;verticalAlign=middle;whiteSpace=wrap;rounded=0;fontFamily=Verdana;" vertex="1" parent="WIyWlLk6GJQsqaUBKTNV-1">
          <mxGeometry x="135" y="-470" width="175" height="30" as="geometry" />
        </mxCell>
        <mxCell id="3PNE6WmQYY1Y-yN5yuSF-29" value="id_user (FK) NN" style="text;strokeColor=none;align=left;fillColor=none;html=1;verticalAlign=middle;whiteSpace=wrap;rounded=0;fontFamily=Verdana;" vertex="1" parent="WIyWlLk6GJQsqaUBKTNV-1">
          <mxGeometry x="135" y="-440" width="110.00000000000001" height="30" as="geometry" />
        </mxCell>
        <mxCell id="3PNE6WmQYY1Y-yN5yuSF-30" value="date_reservation NN" style="text;strokeColor=none;align=left;fillColor=none;html=1;verticalAlign=middle;whiteSpace=wrap;rounded=0;fontFamily=Verdana;" vertex="1" parent="WIyWlLk6GJQsqaUBKTNV-1">
          <mxGeometry x="135" y="-410" width="165" height="30" as="geometry" />
        </mxCell>
        <mxCell id="3PNE6WmQYY1Y-yN5yuSF-31" value="&lt;div&gt;&lt;b&gt;proj.bookings&lt;/b&gt;&lt;/div&gt;" style="text;strokeColor=none;align=center;fillColor=none;html=1;verticalAlign=middle;whiteSpace=wrap;rounded=0;" vertex="1" parent="WIyWlLk6GJQsqaUBKTNV-1">
          <mxGeometry x="80" y="-560" width="240" height="40" as="geometry" />
        </mxCell>
        <mxCell id="3PNE6WmQYY1Y-yN5yuSF-35" value="" style="triangle;whiteSpace=wrap;html=1;rotation=-180;" vertex="1" parent="WIyWlLk6GJQsqaUBKTNV-1">
          <mxGeometry x="63.5" y="-432" width="16.5" height="20" as="geometry" />
        </mxCell>
        <mxCell id="-gnc18n2pd0LGO67LdCI-79" value="" style="endArrow=none;html=1;rounded=0;exitX=0;exitY=0.5;exitDx=0;exitDy=0;entryX=0.5;entryY=1;entryDx=0;entryDy=0;" parent="WIyWlLk6GJQsqaUBKTNV-1" source="-gnc18n2pd0LGO67LdCI-80" edge="1" target="-gnc18n2pd0LGO67LdCI-30">
          <mxGeometry width="50" height="50" relative="1" as="geometry">
            <mxPoint x="130" y="-492" as="sourcePoint" />
            <mxPoint x="220" y="-759" as="targetPoint" />
            <Array as="points">
              <mxPoint x="280" y="66" />
              <mxPoint x="280" y="-160" />
              <mxPoint x="360" y="-160" />
              <mxPoint x="360" y="-600" />
              <mxPoint x="220" y="-600" />
            </Array>
          </mxGeometry>
        </mxCell>
        <mxCell id="-gnc18n2pd0LGO67LdCI-78" value="" style="endArrow=none;html=1;rounded=0;exitX=0.997;exitY=0.534;exitDx=0;exitDy=0;exitPerimeter=0;entryX=0.464;entryY=1.002;entryDx=0;entryDy=0;entryPerimeter=0;" parent="WIyWlLk6GJQsqaUBKTNV-1" source="-gnc18n2pd0LGO67LdCI-57" edge="1" target="-gnc18n2pd0LGO67LdCI-10">
          <mxGeometry width="50" height="50" relative="1" as="geometry">
            <mxPoint x="360" y="-589" as="sourcePoint" />
            <mxPoint x="570" y="-599" as="targetPoint" />
            <Array as="points">
              <mxPoint x="640" y="99" />
              <mxPoint x="640" y="-240" />
              <mxPoint x="561" y="-240" />
            </Array>
          </mxGeometry>
        </mxCell>
        <mxCell id="3PNE6WmQYY1Y-yN5yuSF-37" value="" style="endArrow=none;html=1;rounded=0;entryX=0.197;entryY=1.002;entryDx=0;entryDy=0;entryPerimeter=0;exitX=-0.017;exitY=0.481;exitDx=0;exitDy=0;exitPerimeter=0;" edge="1" parent="WIyWlLk6GJQsqaUBKTNV-1" source="3PNE6WmQYY1Y-yN5yuSF-24" target="-gnc18n2pd0LGO67LdCI-30">
          <mxGeometry width="50" height="50" relative="1" as="geometry">
            <mxPoint x="120" y="-143" as="sourcePoint" />
            <mxPoint x="-210" y="-360" as="targetPoint" />
            <Array as="points">
              <mxPoint x="40" y="-422" />
              <mxPoint x="40" y="-600" />
              <mxPoint x="159" y="-600" />
            </Array>
          </mxGeometry>
        </mxCell>
        <mxCell id="3PNE6WmQYY1Y-yN5yuSF-36" value="" style="ellipse;whiteSpace=wrap;html=1;" vertex="1" parent="WIyWlLk6GJQsqaUBKTNV-1">
          <mxGeometry x="53" y="-427" width="11.11" height="10" as="geometry" />
        </mxCell>
        <mxCell id="3PNE6WmQYY1Y-yN5yuSF-19" value="" style="endArrow=none;html=1;rounded=0;entryX=0;entryY=0.5;entryDx=0;entryDy=0;" edge="1" parent="WIyWlLk6GJQsqaUBKTNV-1" target="3PNE6WmQYY1Y-yN5yuSF-15">
          <mxGeometry width="50" height="50" relative="1" as="geometry">
            <mxPoint x="320" y="-961" as="sourcePoint" />
            <mxPoint x="720" y="-530" as="targetPoint" />
            <Array as="points">
              <mxPoint x="720" y="-960" />
              <mxPoint x="720" y="-393" />
            </Array>
          </mxGeometry>
        </mxCell>
        <mxCell id="3PNE6WmQYY1Y-yN5yuSF-16" value="" style="ellipse;whiteSpace=wrap;html=1;" vertex="1" parent="WIyWlLk6GJQsqaUBKTNV-1">
          <mxGeometry x="732" y="-398" width="11.11" height="10" as="geometry" />
        </mxCell>
        <mxCell id="3PNE6WmQYY1Y-yN5yuSF-40" value="" style="group;fontFamily=Verdana;" vertex="1" connectable="0" parent="WIyWlLk6GJQsqaUBKTNV-1">
          <mxGeometry x="1120" y="-560" width="400" height="280" as="geometry" />
        </mxCell>
        <mxCell id="3PNE6WmQYY1Y-yN5yuSF-41" value="" style="rounded=0;whiteSpace=wrap;html=1;fillColor=#f5f5f5;fontColor=#333333;strokeColor=#666666;" vertex="1" parent="3PNE6WmQYY1Y-yN5yuSF-40">
          <mxGeometry width="360" height="40" as="geometry" />
        </mxCell>
        <mxCell id="3PNE6WmQYY1Y-yN5yuSF-42" value="" style="rounded=0;whiteSpace=wrap;html=1;" vertex="1" parent="3PNE6WmQYY1Y-yN5yuSF-40">
          <mxGeometry x="40" y="40" width="320" height="40" as="geometry" />
        </mxCell>
        <mxCell id="3PNE6WmQYY1Y-yN5yuSF-43" value="" style="rounded=0;whiteSpace=wrap;html=1;" vertex="1" parent="3PNE6WmQYY1Y-yN5yuSF-40">
          <mxGeometry y="40" width="40" height="40" as="geometry" />
        </mxCell>
        <mxCell id="3PNE6WmQYY1Y-yN5yuSF-44" value="" style="rounded=0;whiteSpace=wrap;html=1;" vertex="1" parent="3PNE6WmQYY1Y-yN5yuSF-40">
          <mxGeometry y="80" width="40" height="160" as="geometry" />
        </mxCell>
        <mxCell id="3PNE6WmQYY1Y-yN5yuSF-45" value="" style="rounded=0;whiteSpace=wrap;html=1;" vertex="1" parent="3PNE6WmQYY1Y-yN5yuSF-40">
          <mxGeometry x="40" y="80" width="320" height="160" as="geometry" />
        </mxCell>
        <mxCell id="3PNE6WmQYY1Y-yN5yuSF-46" value="&lt;b&gt;PK&lt;/b&gt;" style="text;strokeColor=none;align=center;fillColor=none;html=1;verticalAlign=middle;whiteSpace=wrap;rounded=0;" vertex="1" parent="3PNE6WmQYY1Y-yN5yuSF-40">
          <mxGeometry y="40" width="40" height="40" as="geometry" />
        </mxCell>
        <mxCell id="3PNE6WmQYY1Y-yN5yuSF-47" value="&lt;b&gt;id_court&lt;/b&gt;" style="text;strokeColor=none;align=left;fillColor=none;html=1;verticalAlign=middle;whiteSpace=wrap;rounded=0;fontStyle=4" vertex="1" parent="3PNE6WmQYY1Y-yN5yuSF-40">
          <mxGeometry x="55.00000000000001" y="45" width="110.00000000000001" height="30" as="geometry" />
        </mxCell>
        <mxCell id="3PNE6WmQYY1Y-yN5yuSF-48" value="name NN UNIQUE" style="text;strokeColor=none;align=left;fillColor=none;html=1;verticalAlign=middle;whiteSpace=wrap;rounded=0;fontFamily=Verdana;" vertex="1" parent="3PNE6WmQYY1Y-yN5yuSF-40">
          <mxGeometry x="55" y="90" width="175" height="30" as="geometry" />
        </mxCell>
        <mxCell id="3PNE6WmQYY1Y-yN5yuSF-49" value="location NN UNIQUE" style="text;strokeColor=none;align=left;fillColor=none;html=1;verticalAlign=middle;whiteSpace=wrap;rounded=0;fontFamily=Verdana;" vertex="1" parent="3PNE6WmQYY1Y-yN5yuSF-40">
          <mxGeometry x="55" y="120" width="145" height="30" as="geometry" />
        </mxCell>
        <mxCell id="3PNE6WmQYY1Y-yN5yuSF-50" value="flooring_type {&quot;grass&quot;, &quot;clay&quot;, &quot;artificial&quot;} NN" style="text;strokeColor=none;align=left;fillColor=none;html=1;verticalAlign=middle;whiteSpace=wrap;rounded=0;fontFamily=Verdana;" vertex="1" parent="3PNE6WmQYY1Y-yN5yuSF-40">
          <mxGeometry x="55" y="150" width="305" height="30" as="geometry" />
        </mxCell>
        <mxCell id="3PNE6WmQYY1Y-yN5yuSF-51" value="&lt;b&gt;proj.courts&lt;/b&gt;" style="text;strokeColor=none;align=center;fillColor=none;html=1;verticalAlign=middle;whiteSpace=wrap;rounded=0;" vertex="1" parent="3PNE6WmQYY1Y-yN5yuSF-40">
          <mxGeometry width="360" height="40" as="geometry" />
        </mxCell>
        <mxCell id="3PNE6WmQYY1Y-yN5yuSF-52" value="picture NN" style="text;strokeColor=none;align=left;fillColor=none;html=1;verticalAlign=middle;whiteSpace=wrap;rounded=0;fontFamily=Verdana;" vertex="1" parent="3PNE6WmQYY1Y-yN5yuSF-40">
          <mxGeometry x="55.00000000000001" y="180" width="110.00000000000001" height="30" as="geometry" />
        </mxCell>
        <mxCell id="3PNE6WmQYY1Y-yN5yuSF-55" value="" style="triangle;whiteSpace=wrap;html=1;rotation=-180;" vertex="1" parent="3PNE6WmQYY1Y-yN5yuSF-40">
          <mxGeometry x="-16.5" y="160" width="16.5" height="20" as="geometry" />
        </mxCell>
        <mxCell id="3PNE6WmQYY1Y-yN5yuSF-56" value="" style="ellipse;whiteSpace=wrap;html=1;" vertex="1" parent="WIyWlLk6GJQsqaUBKTNV-1">
          <mxGeometry x="1092" y="-395" width="11.11" height="10" as="geometry" />
        </mxCell>
        <mxCell id="3PNE6WmQYY1Y-yN5yuSF-57" value="" style="endArrow=none;html=1;rounded=0;entryX=-0.008;entryY=0.56;entryDx=0;entryDy=0;entryPerimeter=0;exitX=0.999;exitY=0.14;exitDx=0;exitDy=0;exitPerimeter=0;" edge="1" parent="WIyWlLk6GJQsqaUBKTNV-1" source="-gnc18n2pd0LGO67LdCI-30" target="3PNE6WmQYY1Y-yN5yuSF-44">
          <mxGeometry width="50" height="50" relative="1" as="geometry">
            <mxPoint x="320" y="-1000" as="sourcePoint" />
            <mxPoint x="1130" y="-430" as="targetPoint" />
            <Array as="points">
              <mxPoint x="1080" y="-1000" />
              <mxPoint x="1080" y="-390" />
            </Array>
          </mxGeometry>
        </mxCell>
      </root>
    </mxGraphModel>
  </diagram>
</mxfile>
